<svg xmlns="http://www.w3.org/2000/svg" width="100" height="100"><g fill="none" fill-rule="evenodd"><path d="M48.085 27.93l23.474 23.456-33.707 34.626-5.327-1.354-14.971-14.59-1.96-7.75 1.96-4.493zm5 2.107L70.29 48.4l14.334-15.783-18.455-17.485z" fill="#fff"/><path d="M87.334 31.194L68.44 12.638a2.227 2.227 0 00-3.117-.003L51.152 26.502l-1.592-1.59a2.227 2.227 0 00-3.157.008l-31.14 31.478c-4.341 4.342-4.356 11.375-.01 15.732l12.243 12.585.02.022a11.128 11.128 0 0015.746 0l31.49-31.488c.87-.87.87-2.28 0-3.148l-1.574-1.575 14.17-14.17a2.227 2.227 0 00-.014-3.162zm-47.22 50.394a6.676 6.676 0 01-9.438.01l-12.24-12.583-.023-.022a6.675 6.675 0 01.009-9.455l29.572-29.895 22.035 22.032-29.917 29.913zm29.915-36.21L54.3 29.65l12.576-12.305 15.735 15.452-12.582 12.58z" fill="#003945" fill-rule="nonzero" stroke="#003945"/><path d="M28.872 59.656l17.99-17.99a1 1 0 011.414 0l9.69 9.692a1 1 0 010 1.414l-17.988 17.99a4 4 0 01-5.657 0l-5.45-5.45a4 4 0 010-5.656z" fill="#05c0a5" stroke="#003945" stroke-width="3.8"/><path d="M36.783 62.687l1.127-1.208m4.656-4.574l4.508-4.832" stroke="#003945" stroke-width="3.8" stroke-linecap="round"/><path d="M69.118 25.1a2.42 2.42 0 00-3.422 0l-3.421 3.422a2.42 2.42 0 103.42 3.42l3.423-3.42a2.42 2.42 0 000-3.422zm5.783 5.783a2.42 2.42 0 00-3.422 0l-3.422 3.42a2.42 2.42 0 103.422 3.423l3.422-3.422a2.42 2.42 0 000-3.421z" fill="#003945" fill-rule="nonzero"/></g></svg>