<svg xmlns="http://www.w3.org/2000/svg" width="57" height="57"><g fill="#FFF"><path d="M53.66 30.568v-2.18a8.342 8.342 0 00-3.34-6.675V18.37c0-4.604-3.745-8.35-8.35-8.35H40.3V5.01A5.015 5.015 0 0035.292 0H15.029a5.015 5.015 0 00-5.01 5.01v5.01H6.68A6.687 6.687 0 000 16.7v31.95C0 53.254 3.746 57 8.35 57h36.96c4.605 0 8.35-3.746 8.35-8.35v-1.957A5.018 5.018 0 0057 41.971v-6.68a5.018 5.018 0 00-3.34-4.723zM40.111 13.722h1.583c2.62 0 4.75 2.131 4.75 4.75v1.584h-6.333v-6.334zM26.39 3.167h8.834c.95 0 1.721.757 1.721 1.689v15.2H26.39V3.166zm-6.333 0h3.166v16.889h-3.166V3.166zm-6.334 1.689c0-.932.71-1.69 1.584-1.69h1.583v16.89h-3.167v-15.2zm-7.389 8.866H9.5v6.334H6.333a3.17 3.17 0 01-3.166-3.167 3.17 3.17 0 013.166-3.167zm44.334 35.023c0 2.806-2.273 5.088-5.065 5.088H8.232c-2.793 0-5.065-2.282-5.065-5.088V22.167a6.687 6.687 0 003.376.912h39.059c2.792 0 5.065 2.283 5.065 5.088v1.922h-5.065c-4.655 0-8.442 3.805-8.442 8.48 0 4.676 3.787 8.48 8.442 8.48h5.065v1.696zm3.166-7.05c0 .872-.77 1.583-1.715 1.583h-6.861c-2.837 0-5.146-2.131-5.146-4.75 0-2.62 2.309-4.75 5.146-4.75h6.861c.946 0 1.715.71 1.715 1.583v6.333z"/><circle cx="47.5" cy="38.5" r="1.5"/></g><path d="M30.08 45.013a5.87 5.87 0 01-1.393 1.587c-.543.425-1.031.637-1.464.637-.242 0-.42-.064-.544-.19-.119-.128-.182-.32-.182-.566 0-.229.305-1.07.92-2.526l1.593-3.727c.709-1.673 1.065-2.734 1.065-3.18 0-.564-.199-.985-.594-1.26-.399-.277-1.002-.417-1.808-.417-1.783 0-3.758 1.079-5.927 3.24l1.927-5.205 5.723-1.503-.318-1.21-4.874 1.282 1.647-4.45h-.45c-.93.32-2.347.497-4.262.536l-.217.624h.578c.637 0 1.04.05 1.201.148.162.098.242.263.242.488 0 .158-.182.722-.543 1.694l-.586 1.584-4.246 1.112.319 1.21 3.4-.891-5.23 14.15h2.148l1.372-3.668c.59-1.626 1.07-2.807 1.435-3.55.369-.743.946-1.536 1.744-2.386.794-.844 1.558-1.451 2.293-1.812.734-.361 1.371-.544 1.915-.544.335 0 .585.064.751.187.161.123.246.31.246.556 0 .408-.356 1.397-1.065 2.972l-1.537 3.43c-.675 1.516-1.01 2.573-1.01 3.163 0 .556.199 1.002.594 1.337.399.336.874.506 1.426.506.76 0 1.558-.306 2.403-.922.845-.615 1.57-1.426 2.187-2.436z" fill="#fff"/></svg>