<svg version="1.1" id="Layer_1" xmlns="http://www.w3.org/2000/svg" x="0" y="0" viewBox="0 0 390 380" xml:space="preserve"><style>.st2{fill:#39ba8b}.st3{fill:#0a2840}.st4{fill:#fff}.st5,.st6{opacity:.15;fill:#fff}.st6{opacity:.25}.st7{fill:#f7b295}.st8{fill:#f29f87}.st10{fill:#34739b}.st12{fill:#f39680}.st13{fill:#784a43}.st14{opacity:.2;fill-rule:evenodd;clip-rule:evenodd;fill:#00ff9d;stroke:#fff;stroke-width:1.0183;stroke-miterlimit:10}</style><path d="M243.48 7.41c14.42 2.42 28.12 7.01 41.1 13.76 4.07 2.12 5.72 5.79 4.74 10.2-.81 3.67-4.12 6.56-8.05 6.58-1.72.01-3.57-.5-5.14-1.26-13.13-6.3-26.88-10.49-41.34-12.27-15.36-1.89-30.54-.91-45.52 3.05-3.47.92-5.46 3.16-5.59 6.18-.19 4.38 3.52 7.48 7.92 6.59 3.84-.78 7.67-1.64 11.52-2.43 32.58.18 35.32 29.19 16.98 32.38-4.24.83-8.47 1.69-12.7 2.57-.71.15-1.42.39-2.09.67-2.37 1.01-3.6 3.42-3.05 5.87.54 2.41 2.77 4.12 5.29 3.98.85-.05 1.7-.28 2.54-.51 22.36-6.01 44.87-6.39 67.37-1.16 50.27 11.68 89.29 49.45 103.03 99.41 3.08 11.2 4.63 22.61 4.8 34.22.08 5.61-3.68 9.81-8.83 9.84-5.17.03-9.1-4.03-9.18-9.58-.15-9.93-1.47-19.7-4.05-29.29-.98-3.65-3.79-5.74-7.12-5.44-4.15.37-6.79 4.24-5.83 8.58.62 2.8 1.34 5.58 1.88 8.4.86 4.5-1.24 8.01-5.11 8.78-3.98.79-7.16-1.78-8.23-6.23-1.24-5.19-2.62-10.35-4.23-15.43-1.29-4.05-5.02-5.8-8.68-4.47-3.54 1.28-5.13 5.11-3.79 9.1.57 1.71 1.19 3.41 1.66 5.15.72 2.66-.54 5.07-2.91 5.78-2.42.72-4.74-.53-5.67-3.11-.52-1.44-8.2 8.94-7.32 14.2 2.7 16.09 2.65 32.24-.46 48.24-6.5 33.43-21.62 62.11-48.4 83.6-25.84 20.73-55.26 32.31-88.74 32.03-6.17-.05-12.35-.67-18.49-1.37-5.55-.63-8.84-5-8.11-10.15.73-5.2 5.23-8.39 10.76-7.68 15.82 2.03 31.47 1.1 46.91-2.96 4.08-1.07 6.23-4.27 5.37-7.98-.86-3.75-4.41-5.79-8.51-4.88-2.79.62-5.57 1.32-8.38 1.86-4.41.84-7.96-1.35-8.7-5.24-.73-3.88 1.84-7.1 6.15-8.13 5.1-1.22 10.19-2.55 15.2-4.11 4.22-1.32 6.08-5.01 4.78-8.71-1.28-3.66-5.08-5.25-9.21-3.86-1.58.53-3.15 1.08-4.75 1.54-2.88.83-5.35-.36-6.09-2.89-.75-2.54-11.5-11.63-18.67-10.33-52.64 9.57-106.44-12.57-137.45-56.36C14.43 220.6 5.86 194.35 5.3 165.46c-.11-5.51 3.57-9.67 8.64-9.82 5.22-.16 9.28 3.97 9.37 9.6.15 9.86 1.48 19.56 3.99 29.1.79 2.98 2.5 5.01 5.61 5.53 4.62.78 8.41-3.35 7.45-8.13-.6-3.01-1.41-5.98-1.97-9-.81-4.33 1.37-7.83 5.18-8.56 3.93-.75 7.11 1.76 8.16 6.08 1.25 5.18 15.49.9 17.83.1 2.43-.84 4.66.26 5.79 2.86 1.3 2.97 3.41 4.06 6.16 3.17 2.72-.88 3.99-3.31 3.26-6.42-3.4-14.33-4.66-28.87-3.78-43.55 1.3-21.54 6.88-41.98 18-60.48C125.92 31.1 165.65 7.42 217.86 5.46c8.52-.32 17.1.9 25.65 1.4l-.03.55z" fill="#012335"/><g opacity=".2"><path class="st2" d="M344.1 203.72c.02 11.67-1.75 23.07-5.31 34.18-1.12 3.49-3.76 5.27-7.34 5.08-2.97-.15-5.67-2.37-6.21-5.46-.23-1.35-.08-2.88.3-4.21 3.19-11.18 4.65-22.56 4.12-34.18-.56-12.34-3.34-24.17-8.41-35.44-1.17-2.61-3.19-3.88-5.57-3.58-3.45.43-5.38 3.76-4.1 7.11 1.12 2.92 2.3 5.82 3.42 8.75.63 1.63.52 3.25-.33 4.77-1.15 2.04-2.96 3.05-5.27 2.86-2.52-.2-4.05-1.73-5.03-4.03-1.9-4.43-3.84-8.85-5.92-13.2-1.11-2.31-3.37-3.38-5.46-2.99-3.41.64-5.25 4.23-3.77 7.52.54 1.2 1.28 2.32 1.99 3.44 3.28 5.19 5.84 10.72 7.48 16.64.27.97.34 2.14.07 3.1-.43 1.51-1.69 2.27-3.28 2.29-1.6.03-2.86-1.04-3.5-2.74-1.21-3.23-2.45-6.44-3.69-9.66-.21-.54-.49-1.06-.8-1.55-1.11-1.73-3.15-2.38-4.99-1.62-1.81.75-2.85 2.73-2.41 4.7.15.66.45 1.3.73 1.93 7.66 16.81 10.93 34.48 9.83 52.89-2.47 41.12-26.81 76.85-64.02 94.28-8.34 3.91-17.05 6.64-26.1 8.31-4.37.81-8.15-1.6-8.86-5.64-.71-4.07 1.94-7.7 6.27-8.5 7.74-1.43 15.2-3.77 22.35-7.07 2.72-1.26 3.98-3.75 3.31-6.33-.84-3.22-4.21-4.78-7.47-3.46-2.11.86-4.18 1.8-6.32 2.59-3.4 1.27-6.42.09-7.54-2.86-1.15-3.03.44-5.87 3.78-7.3 3.89-1.66 7.74-3.43 11.49-5.37 3-1.55 3.86-4.72 2.34-7.43-1.47-2.62-4.67-3.36-7.61-1.78-1.26.68-2.51 1.39-3.8 1.99-1.98.92-4.03.25-4.9-1.52-.89-1.81-.21-3.8 1.68-4.88 1.06-.6 2.16-1.13 3.22-1.73 2.36-1.34 3.15-3.4 2.12-5.41-1.03-1.99-3.18-2.54-5.64-1.52-3.91 1.63-7.77 3.39-11.76 4.79-12.21 4.26-24.84 6.36-37.75 6.03-26.98-.69-51.39-8.8-71.72-27.03-19.62-17.59-32.57-39.23-36.78-65.62-.78-4.86-1.12-9.81-1.38-14.74-.24-4.46 2.74-7.62 6.86-7.73 4.16-.11 7.24 3 7.42 7.46.51 12.73 3.31 24.92 8.52 36.54 1.38 3.07 4.16 4.34 6.95 3.17 2.82-1.17 3.94-4.24 2.68-7.34-.86-2.12-1.77-4.21-2.56-6.35-1.24-3.36 0-6.45 2.94-7.54 2.94-1.09 5.79.51 7.17 3.76 1.63 3.86 3.34 7.69 5.23 11.42 1.59 3.15 4.72 4.13 7.44 2.61 2.69-1.5 3.43-4.7 1.8-7.76-.62-1.17-1.26-2.34-1.83-3.53-1.03-2.16-.42-4.26 1.45-5.18 1.89-.93 3.85-.13 4.99 2.02.27.52.52 1.05.79 1.56 1.46 2.75 3.61 3.71 5.75 2.57 2.2-1.18 2.49-3.4 1.16-6.23-2.47-5.28-5.13-10.51-7.1-15.99-14.45-40.18-4.28-85.47 25.82-115.68 16.2-16.26 35.57-26.48 58.06-30.75 4.29-.81 8.02 1.53 8.82 5.5.82 4.09-1.87 7.83-6.26 8.64a94.911 94.911 0 00-22.2 7c-2.23 1.01-3.58 2.63-3.58 5.15.01 3.74 3.73 6.17 7.33 4.79 2.27-.87 4.49-1.9 6.77-2.75 3.27-1.21 6.3.04 7.37 2.94 1.11 3-.43 5.83-3.67 7.23-3.88 1.67-7.74 3.43-11.51 5.35-3.09 1.58-4 4.78-2.45 7.53 1.47 2.6 4.7 3.34 7.62 1.74 1.21-.66 2.41-1.33 3.66-1.92 2.01-.96 4.02-.39 4.96 1.35.98 1.8.41 3.7-1.47 4.94-2.15 1.41-2.72 3.22-1.66 5.27 1.05 2.03 3.12 2.7 5.44 1.71 10.74-4.58 21.94-7.5 33.52-8.74 17-1.83 33.71-.14 49.63 6.16 38.6 15.28 62.36 43.42 70.81 84.26 1.38 6.67 1.57 13.58 2.3 20.38-.14.01-.28.02-.43.04z"/><path class="st2" d="M246.91 68.59c-.27-.05-.85-.12-1.4-.28-13.72-4.04-27.4-4.09-41.08.23-3.58 1.13-6.69-1.2-6.45-4.69.13-2 1.41-3.43 3.78-4.19 7.2-2.32 14.59-3.48 22.15-3.56 8.15-.09 16.12 1.02 23.9 3.48.4.13.81.24 1.2.4 2.18.9 3.3 2.9 2.87 5.09-.4 2.07-2.35 3.54-4.97 3.52zm-188.73 86.3c0 1.11.02 2.23 0 3.34-.06 3.61-2.8 6.28-6.41 6.26-3.51-.02-6.21-2.7-6.27-6.25-.03-2.23-.04-4.46 0-6.69.06-3.52 2.81-6.18 6.34-6.18s6.27 2.65 6.35 6.17c.01 1.13-.01 2.24-.01 3.35zm260.62 46.58c-.17 2.61-.27 4.73-.46 6.84-.22 2.61-2.19 4.18-4.93 4.02-2.45-.14-4.06-2.02-4.07-4.55-.01-4.34-.08-8.67-.2-13.01-.07-2.52 1.34-4.39 3.73-4.72 2.65-.36 4.85 1.09 5.21 3.67.38 2.72.52 5.48.72 7.75z"/></g><path class="st3" d="M189.4 251.48c-4.77.01-9.44-.72-13.98-2.19-1.43-.46-2.16-1.55-2.08-3.03.06-1.23.97-2.34 2.23-2.56.55-.1 1.18-.03 1.72.12 4.57 1.32 9.23 1.92 13.98 1.7 5.05-.23 9.89-1.38 14.49-3.47 1.07-.48 1.59-1.32 1.47-2.3-.18-1.42-1.54-2.22-2.91-1.69-1.2.46-2.38.95-3.58 1.41-.67.26-1.33.22-1.95-.14-.83-.48-1.25-1.22-1.17-2.17.08-1.04.71-1.67 1.65-2.07 1.81-.78 3.62-1.58 5.4-2.44.95-.46 1.38-1.39 1.22-2.25-.26-1.4-1.73-2.16-3.08-1.56-.49.22-.95.53-1.41.82-2.12 1.35-4.38 2.41-6.81 3.08-.4.11-.88.14-1.27.03-.62-.18-.93-.7-.94-1.35-.01-.66.42-1.18 1.12-1.44a462 462 0 003.95-1.52c.22-.09.44-.2.64-.33.71-.46.98-1.3.66-2.06a1.666 1.666 0 00-1.92-.99c-.27.06-.53.18-.79.3-6.88 3.16-14.1 4.51-21.63 4.05-16.82-1.02-31.44-11.05-38.57-26.39-1.6-3.44-2.72-7.03-3.4-10.76-.33-1.8.65-3.36 2.31-3.65 1.66-.29 3.15.8 3.48 2.58a39.12 39.12 0 002.89 9.21c.51 1.12 1.53 1.64 2.59 1.36 1.32-.34 1.96-1.73 1.41-3.08-.35-.87-.74-1.73-1.06-2.6-.52-1.4-.04-2.65 1.17-3.11 1.24-.47 2.4.18 2.99 1.56a70.1 70.1 0 002.2 4.74c.63 1.24 1.93 1.59 3.04.97 1.07-.61 1.38-1.92.73-3.14-.28-.52-.57-1.03-.81-1.57-.38-.82-.1-1.66.62-2.02.74-.37 1.56-.09 2 .69.25.44.46.89.71 1.33.55.97 1.39 1.3 2.21.87.81-.42 1.04-1.31.62-2.32-.67-1.61-1.39-3.2-1.96-4.85-1.74-5.03-2.6-10.24-2.46-15.56.28-11.12 3.6-21.18 11.06-29.57 7.2-8.09 16.05-13.42 26.84-15.16 1.99-.32 4.01-.46 6.03-.57 1.82-.1 3.12 1.13 3.16 2.83.05 1.71-1.23 2.99-3.05 3.06-5.21.21-10.19 1.36-14.95 3.51-1.26.57-1.77 1.71-1.3 2.86.48 1.16 1.73 1.62 3 1.11.87-.35 1.72-.73 2.6-1.06 1.37-.51 2.64 0 3.08 1.21.45 1.21-.21 2.39-1.54 2.96-1.58.67-3.14 1.38-4.67 2.15-1.29.65-1.69 1.95-1.07 3.07.61 1.11 1.92 1.41 3.18.74.48-.26.96-.52 1.44-.76.88-.43 1.74-.17 2.12.6.38.78.05 1.59-.83 2.06-.21.11-.43.21-.64.33-1.13.6-1.52 1.49-1.05 2.37.48.91 1.39 1.03 2.55.48 2.16-1.02 4.3-2.11 6.54-2.93 16.44-5.96 34.96-1.76 47.32 10.64 6.65 6.68 10.83 14.66 12.58 23.94.33 1.77-.63 3.31-2.25 3.64-1.67.34-3.2-.77-3.54-2.58-.58-3.17-1.54-6.22-2.86-9.15-.41-.92-1.08-1.48-2.11-1.47-1.53 0-2.53 1.54-1.96 3.02.36.94.78 1.85 1.12 2.79.49 1.35-.02 2.6-1.2 3.04-1.23.46-2.39-.18-2.96-1.51-.69-1.6-1.4-3.19-2.19-4.74-.65-1.27-1.96-1.65-3.08-1.01-1.06.61-1.36 1.94-.71 3.14.27.5.54.99.79 1.51.39.83.16 1.66-.55 2.05-.74.4-1.51.17-2.02-.6-.58-.89-1.32-1.12-2.15-.68-.83.43-1.11 1.28-.7 2.24a48.64 48.64 0 013.58 13.82c.75 7.01.06 13.9-2.52 20.46-6.25 15.91-17.76 25.7-34.47 29.19-2.73.57-5.56.65-8.34.95.01-.07.01-.13 0-.19z"/><path class="st3" d="M244.67 211.41c.02-.11.05-.35.12-.58 1.65-5.65 1.67-11.29-.1-16.93-.46-1.48.49-2.76 1.92-2.66.82.06 1.4.58 1.72 1.56.95 2.97 1.42 6.01 1.46 9.13.04 3.36-.42 6.65-1.43 9.85-.05.17-.1.34-.16.5-.37.9-1.19 1.36-2.08 1.18-.85-.16-1.46-.97-1.45-2.05zm-35.3-77.79c-.46 0-.91.01-1.37 0-1.48-.03-2.57-1.16-2.56-2.64.01-1.45 1.1-2.56 2.56-2.58.91-.01 1.82-.02 2.74 0 1.44.02 2.53 1.16 2.53 2.61 0 1.46-1.08 2.58-2.52 2.62-.47 0-.92-.01-1.38-.01zm-19.05 107.43c-1.07-.07-1.93-.11-2.8-.19-1.07-.09-1.71-.9-1.65-2.03.06-1.01.83-1.67 1.86-1.68 1.77-.01 3.55-.03 5.32-.08 1.03-.03 1.8.55 1.93 1.54.15 1.09-.45 2-1.5 2.15-1.1.15-2.23.21-3.16.29z"/><ellipse class="st2" cx="127.77" cy="113.27" rx="1.99" ry="2"/><ellipse class="st4" cx="118.31" cy="82.41" rx="1.99" ry="2"/><ellipse class="st5" cx="171.12" cy="37.08" rx="1.49" ry="1.5"/><ellipse class="st4" cx="221.74" cy="8.47" rx=".99" ry="1"/><ellipse class="st5" cx="173.94" cy="78.57" rx="2.53" ry="2.54"/><ellipse class="st4" cx="135.88" cy="94.96" rx=".99" ry="1"/><ellipse class="st4" cx="107.17" cy="145.89" rx="1.49" ry="1.5"/><ellipse class="st2" cx="173.65" cy="137.75" rx=".99" ry="1"/><ellipse class="st6" cx="76.59" cy="221.72" rx="2.53" ry="2.54"/><ellipse class="st4" cx="32.65" cy="224.26" rx="1.49" ry="1.5"/><ellipse class="st6" cx="27.59" cy="253.62" rx="2.53" ry="2.54"/><ellipse class="st2" cx="94.43" cy="304.15" rx="2.53" ry="2.54"/><ellipse class="st4" cx="70.75" cy="264.34" rx="2.53" ry="2.54"/><ellipse class="st4" cx="100.98" cy="253.62" rx="1.49" ry="1.5"/><ellipse class="st5" cx="130.82" cy="274.25" rx="2.53" ry="2.54"/><ellipse class="st4" cx="133.35" cy="188.73" rx="1.49" ry="1.5"/><ellipse class="st4" cx="186.83" cy="100.04" rx="1.49" ry="1.5"/><ellipse class="st4" cx="135.88" cy="45.06" rx=".99" ry="1"/><ellipse class="st5" cx="79.12" cy="66.08" rx="2.53" ry="2.54"/><ellipse class="st2" cx="79.12" cy="110.73" rx="1.49" ry="1.5"/><ellipse class="st6" cx="34.15" cy="146.93" rx="1.52" ry="1.53"/><ellipse class="st4" cx="83.8" cy="171.02" rx="1.99" ry="2"/><ellipse class="st2" cx="65.68" cy="191.27" rx="1.99" ry="2"/><ellipse class="st4" cx="140.26" cy="157.3" rx="1.49" ry="1.5"/><ellipse class="st4" cx="144.94" cy="217.59" rx="1.99" ry="2"/><ellipse class="st5" cx="159.3" cy="251.07" rx="1.49" ry="1.5"/><ellipse class="st6" cx="168.59" cy="215.05" rx="2.53" ry="2.54"/><ellipse class="st4" cx="173.03" cy="173.56" rx=".99" ry="1"/><circle class="st4" cx="126.82" cy="237.84" r=".5"/><ellipse class="st2" cx="263.11" cy="246.16" rx="1.99" ry="2"/><ellipse class="st4" cx="272.56" cy="277.02" rx="1.99" ry="2"/><ellipse class="st5" cx="219.76" cy="322.36" rx="1.49" ry="1.5"/><ellipse class="st4" cx="169.14" cy="350.97" rx=".99" ry="1"/><ellipse class="st5" cx="216.94" cy="280.87" rx="2.53" ry="2.54"/><ellipse class="st4" cx="255" cy="264.48" rx=".99" ry="1"/><ellipse class="st4" cx="283.71" cy="213.54" rx="1.49" ry="1.5"/><ellipse class="st2" cx="217.23" cy="221.68" rx=".99" ry="1"/><ellipse class="st6" cx="314.29" cy="137.71" rx="2.53" ry="2.54"/><ellipse class="st4" cx="358.22" cy="135.17" rx="1.49" ry="1.5"/><ellipse class="st2" cx="305.12" cy="68.62" rx="2.53" ry="2.54"/><ellipse class="st4" cx="320.13" cy="95.1" rx="2.53" ry="2.54"/><ellipse class="st4" cx="289.9" cy="105.82" rx="1.49" ry="1.5"/><ellipse class="st5" cx="260.06" cy="85.19" rx="2.53" ry="2.54"/><ellipse class="st4" cx="257.53" cy="170.71" rx="1.49" ry="1.5"/><ellipse class="st4" cx="204.05" cy="259.39" rx="1.49" ry="1.5"/><ellipse class="st4" cx="255" cy="314.38" rx=".99" ry="1"/><ellipse class="st5" cx="311.76" cy="293.35" rx="2.53" ry="2.54"/><ellipse class="st2" cx="311.76" cy="248.7" rx="1.49" ry="1.5"/><ellipse class="st6" cx="338.52" cy="211.61" rx="2.53" ry="2.54"/><ellipse class="st4" cx="307.07" cy="188.42" rx="1.99" ry="2"/><ellipse class="st2" cx="325.19" cy="168.16" rx="1.99" ry="2"/><ellipse class="st4" cx="250.62" cy="202.13" rx="1.49" ry="1.5"/><ellipse class="st4" cx="245.93" cy="141.84" rx="1.99" ry="2"/><ellipse class="st5" cx="231.58" cy="108.36" rx="1.49" ry="1.5"/><ellipse class="st6" cx="222.29" cy="144.38" rx="2.53" ry="2.54"/><ellipse class="st4" cx="217.84" cy="185.87" rx=".99" ry="1"/><circle class="st4" cx="264.06" cy="121.59" r=".5"/><path class="st2" d="M183.75 106.97s-12.91 5.58-20.1 31.44-5.59 34.91-5.59 34.91l13.11 2.29 2.5-11.45 10.08-57.19z"/><path class="st7" d="M150.07 187.07l8-13.74 13.11 2.29s-10.43 10.4-10.16 11.26l-10.95.19z"/><path class="st7" d="M155.66 178.68s-8.97 2.16-13.59 1.08c0 0-1-.44-1.68.92s.46 3.25 5.86 4.66l-11.18 13.64s-.66.8.58 1.79c1.23.99 1.67.07 1.67.07l8.42-8.17-6.97 11.6s-.4.87.56 1.44c.96.57 1.57-.36 1.57-.36l7.28-8.82-3.2 10.31s-.06.78.81 1c.87.23 1.18-.64 1.18-.64l5.07-9.64-1.39 8.01s.39 1.45 1.45 1.02.99-1.07.99-1.07l2.67-7.15s5.7-7.47 6.22-8.39c.53-.92 2.09-5.28.49-6.86-1.61-1.57-4.75-4.88-6.81-4.44z"/><path class="st8" d="M145.66 186.05s5.17 3 8.95-.53c0 0 .91-.73.38-1.22s-1.4.35-1.4.35-3.21 2.25-7.35.69l-.58.71zm15.4-4.29l10.12-6.14-8.16 8.53z"/><path class="st2" d="M206.84 106.97s12.91 5.58 20.1 31.44 5.59 34.91 5.59 34.91l-13.11 2.29-2.5-11.45-10.08-57.19z"/><path class="st7" d="M240.53 187.07l-8-13.74-13.11 2.29s10.43 10.4 10.16 11.26l10.95.19z"/><path class="st7" d="M234.94 178.68s8.97 2.16 13.59 1.08c0 0 1-.44 1.68.92s-.46 3.25-5.86 4.66l11.18 13.64s.66.8-.58 1.79-1.67.07-1.67.07l-8.42-8.17 6.97 11.6s.4.87-.56 1.44c-.96.57-1.57-.36-1.57-.36l-7.28-8.82 3.2 10.31s.06.78-.81 1c-.87.23-1.18-.64-1.18-.64l-5.07-9.64 1.39 8.01s-.39 1.45-1.45 1.02-.99-1.07-.99-1.07l-2.67-7.15s-5.7-7.47-6.22-8.39c-.53-.92-2.09-5.28-.49-6.86 1.61-1.57 4.74-4.88 6.81-4.44z"/><path class="st8" d="M244.93 186.05s-5.17 3-8.95-.53c0 0-.91-.73-.38-1.22s1.4.35 1.4.35 3.21 2.25 7.35.69l.58.71zm-15.4-4.29l-10.12-6.14 8.16 8.53z"/><path class="st4" d="M210.26 331.51s11.96 3.48 18.6 9.89c6.64 6.41 6.47 8.92 5.88 9.85s-6.26 3.14-13.62.64-20.77-11.72-21.15-14.22c-.38-2.51.2-4.78.65-4.98s9.64-1.18 9.64-1.18z"/><path class="st2" d="M228.86 341.4s-4.23 5.99-4.65 6.07c-.42.08-3.3-.81-3.98-1.06-.68-.25-16.58-7.94-17.3-10.66-.72-2.72 7.31-4.24 7.32-4.24.01 0 11.97 3.48 18.61 9.89z"/><path class="st4" d="M180.67 331.51s-11.96 3.48-18.6 9.89-6.47 8.92-5.88 9.85 6.26 3.14 13.62.64c7.36-2.51 20.77-11.72 21.15-14.22.38-2.51-.2-4.78-.65-4.98s-9.64-1.18-9.64-1.18z"/><path class="st2" d="M162.07 341.4s4.23 5.99 4.65 6.07c.42.08 3.3-.81 3.98-1.06.68-.25 16.58-7.94 17.3-10.66.72-2.72-7.31-4.24-7.32-4.24-.01 0-11.97 3.48-18.61 9.89z"/><path d="M171.29 197.45l24.09 2.77 24.09-2.77s-2.48 18.9-2.09 21.96c.4 3.06-.93 55.59-.93 56.92 0 1.33-6.09 54.39-6.09 54.39s-.4 6.52-5.3 5.85c-4.9-.66-4.77-5.19-4.64-7.45 0 0 1.72-53.2 1.99-54.66.26-1.46-4.5-53.15-5.56-53.9-1.06-.76-1.88-.76-2.94 0s-5.83 52.44-5.56 53.9c.26 1.46 1.99 54.66 1.99 54.66.13 2.26.26 6.78-4.64 7.45-4.9.66-5.3-5.85-5.3-5.85s-6.09-53.06-6.09-54.39c0-1.33-1.32-53.86-.93-56.92.39-3.06-2.09-21.96-2.09-21.96z" fill="#4485b4"/><path class="st10" d="M180.38 201.1s.5 4.19-6.87 7.23c0 0 9.22-.52 6.87-7.23zm29.83 0s-.5 4.19 6.87 7.23c0 0-9.22-.52-6.87-7.23z"/><path class="st10" d="M219.47 197.45s-.25 1.91-.58 4.6c-.32.06-.65.1-.99.1 0 0-10.76.97-22.52.97s-22.61-.97-22.61-.97c-.31 0-.6-.03-.9-.08-.33-2.71-.58-4.62-.58-4.62l24.09 2.77 24.09-2.77z"/><path class="st4" d="M186.05 105.34h18.81s7.6 3.92 8.97 14.44c1.13 8.65 6.43 56.89 7.91 73.74.28 3.12-2.17 5.81-5.3 5.81 0 0-10.07.91-21.07.91s-21.16-.91-21.16-.91c-3.09 0-5.5-2.67-5.2-5.76 1.65-16.9 7.42-65.66 7.98-73.79.69-9.87 9.06-14.44 9.06-14.44z"/><path class="st7" d="M193.72 115.87h3.47c4.24 0 7.67-3.43 7.67-7.67v-9.27h-18.81v9.27c0 4.23 3.43 7.67 7.67 7.67z"/><path class="st8" d="M204.86 99.34s-3.01 8.06-9.1 8.06-9.72-7.9-9.72-7.9l18.82-.16z"/><path d="M173.05 63.34s-2.62-14.01-2.21-16.13c.41-2.11.76-1.61 1.09-3.02.32-1.41-2.62-2.11-2.71-9.16-.08-7.05-.24-7.35.79-7.25s31.93 3.02 35.44 3.02 10.03 1.51 10.43 7.65c0 0 4.15 2.22 3.88 8.86s-1.19 16.03-1.19 16.03h-45.52z" fill="#654258"/><path class="st7" d="M204.71 43.75s-9.46 10.07-26.45 4.92c0 0-1.71-1.53-1.82 1.47-.11 3 0 12.96 0 12.96s-6.39-.34-6.73 2.75c-.34 3.09-1.71 10.19 2.51 12.82 4.22 2.63 4.1 0 4.1 0l.46 8.01s.23 2.86 2.05 4.69 9.92 13.39 16.53 13.39c6.61 0 17.79-14.42 17.79-14.42s1.48-2.63 1.6-4.81c.11-2.17 0-5.72 0-5.72s7.07.23 7.98-6.64c.91-6.87-1.71-10.42-7.64-10.3l-.11-9.27s.34-5.15-1.82-6.98c-2.18-1.84-6.7-4.37-8.45-2.87z"/><ellipse class="st12" cx="208.85" cy="75.2" rx="2.91" ry="2.92"/><ellipse class="st12" cx="182.37" cy="75.61" rx="2.91" ry="2.92"/><path class="st4" d="M188.69 85.58s1.6 2.72 6.46 2.72 6.18-2.72 6.18-2.72h-12.64zm-1.12-15.41c.84 0 1.52-.68 1.52-1.52v-2.09a1.52 1.52 0 10-3.04 0v2.09c0 .84.68 1.52 1.52 1.52z"/><path class="st13" d="M187.57 70.36c.84 0 1.52-.68 1.52-1.52v-.01a1.52 1.52 0 10-3.04 0v.01c0 .83.68 1.52 1.52 1.52z"/><path class="st4" d="M203.64 70.17c.84 0 1.52-.68 1.52-1.52v-2.09a1.52 1.52 0 10-3.04 0v2.09c-.01.84.68 1.52 1.52 1.52z"/><path class="st13" d="M189.9 62.42V59.4s-3.46-1.41-6.14 1.01v2.94c-.01-.01 2.93-2.24 6.14-.93zm10.8 0V59.4s3.46-1.41 6.14 1.01v2.94c0-.01-2.93-2.24-6.14-.93zm2.94 7.94c.84 0 1.52-.68 1.52-1.52v-.01a1.52 1.52 0 10-3.04 0v.01c-.01.83.68 1.52 1.52 1.52z"/><ellipse class="st14" cx="195.38" cy="175.62" rx="50.82" ry="51.01"/><ellipse class="st14" cx="195.38" cy="175.62" rx="40.65" ry="40.81"/><ellipse class="st14" cx="195.38" cy="175.62" rx="30.49" ry="30.61"/><ellipse class="st14" cx="195.38" cy="175.62" rx="20.33" ry="20.41"/><g id="Page-1_5_"><g id="Artboard-Copy-4_5_" transform="translate(-152 -46)"><g id="Group-2-Copy_5_" transform="translate(147 41)"><g id="Group_5_" fill-rule="evenodd" clip-rule="evenodd"><path id="Rectangle_9_" d="M192 164.08h16.97c4.41 0 7.99 3.59 7.99 8.02v17.04c0 4.43-3.58 8.02-7.99 8.02H192c-4.41 0-7.99-3.59-7.99-8.02V172.1c0-4.43 3.58-8.02 7.99-8.02z" fill="#39ba8b" fill-opacity=".5"/><path d="M187.52 168.29l15.01-5.48c4.15-1.51 8.73.63 10.24 4.79l5.46 15.07c1.51 4.16-.63 8.76-4.77 10.28l-15.01 5.48a7.984 7.984 0 01-10.24-4.79l-5.46-15.07c-1.51-4.16.62-8.77 4.77-10.28z" fill="#39ba8b"/><path id="Fill-13_5_" d="M200.47 179.22c.48-.46.97-.87 1.49-1.23.52-.37 1.04-.66 1.58-.89.54-.23 1.25-.46 2.34-.15 1.35.39 1.19 1.94 1.12 2.15-.5 1.35-.95 2.48-1.37 3.4-.42.92-.78 1.74-1.1 2.47-.32.72-.58 1.42-.77 2.08-.2.66-.33 1.41-.39 2.24 0 .06.01.13.03.21.02.08.06.15.13.21s.17.09.31.09c.14 0 .32-.05.54-.15.57-.28 1.26-.76 2.07-1.46.4-.35.62-.18.68.16.05.33-.07.82-.35 1.12-.57.59-1.17 1.1-1.8 1.53-.63.43-1.25.64-1.84.64-.34 0-.67-.06-1-.18-.33-.12-.61-.3-.85-.53-.24-.24-.43-.54-.57-.92-.14-.38-.2-.82-.18-1.34.02-.51.09-1.03.21-1.53.12-.51.27-1.04.46-1.6s.42-1.18.7-1.84c.28-.66.58-1.4.92-2.21.22-.51.39-.99.51-1.41.12-.43.14-.74.06-.94-.08-.2-.29-.23-.62-.1-.34.13-.85.49-1.55 1.08-.75.69-1.43 1.35-2.02 1.96l-.02.02c-1.31 1.35-2.27 3-2.85 4.79-.08.26-.17.53-.24.79-.35 1.2-.57 2.45-.67 3.76 0 .14-.11.18-.33.12-.22-.06-.46-.16-.73-.31-.27-.15-.51-.32-.73-.52-.22-.2-.34-.38-.36-.54.06-1.21.26-2.43.61-3.66s.78-2.47 1.31-3.71c.53-1.25 1.1-2.49 1.71-3.73.4-.81.8-1.61 1.19-2.42l-5.42 2.11-.05-.13c-.33-.84.09-1.78.93-2.1l5.68-2.21c.16-.35.32-.69.48-1.04.32-.7.62-1.39.91-2.07.29-.67.54-1.32.76-1.93.22-.61.4-1.18.54-1.69.2-.1 1.11.36 1.4.61.3.25.54.54.71.88.18.34.21.66.09.98-.08.24-.23.6-.46 1.08-.23.49-.49 1.04-.79 1.65-.02.05-.05.1-.07.15l4.54-1.76.05.13c.33.84-.09 1.78-.93 2.1l-4.86 1.89c-.25.48-.49.95-.72 1.41l-1.73 3.89c.39-.48.83-.94 1.31-1.4" fill="#fefefe"/></g></g></g></g></svg>