<svg xmlns="http://www.w3.org/2000/svg" width="946.4" height="946.2" viewBox="0 0 250.402 250.349"><g fill="#3bc1aa"><path d="M164.73 163.539c-2.408 3.942-5.292 7.25-8.679 9.895-3.386 2.646-6.43 3.97-9.128 3.97-1.508 0-2.62-.398-3.387-1.192-.74-.793-1.137-1.984-1.137-3.518 0-1.43 1.905-6.668 5.741-15.743l9.922-23.23c4.419-10.425 6.641-17.04 6.641-19.818 0-3.519-1.243-6.138-3.704-7.858-2.487-1.72-6.244-2.593-11.271-2.593-11.113 0-23.416 6.72-36.936 20.188l12.012-32.438 35.666-9.366-1.985-7.541-30.374 7.99 10.266-27.728h-2.805c-5.794 1.984-14.631 3.096-26.564 3.334l-1.349 3.89h3.598c3.969 0 6.483.317 7.488.925 1.005.609 1.508 1.64 1.508 3.043 0 .979-1.138 4.498-3.387 10.557l-3.65 9.869-26.46 6.932 1.985 7.54 21.193-5.556-32.596 88.186h13.388l8.546-22.86c3.677-10.134 6.667-17.49 8.943-22.12 2.301-4.63 5.9-9.577 10.874-14.869 4.948-5.265 9.71-9.049 14.287-11.298 4.578-2.249 8.546-3.386 11.933-3.386 2.09 0 3.651.397 4.683 1.164 1.006.767 1.535 1.931 1.535 3.466 0 2.54-2.223 8.705-6.641 18.52l-9.578 21.38c-4.207 9.445-6.297 16.033-6.297 19.71 0 3.467 1.243 6.245 3.704 8.335 2.487 2.09 5.45 3.148 8.89 3.148 4.736 0 9.71-1.905 14.975-5.741 5.266-3.836 9.79-8.89 13.626-15.187z"/><path d="M125.2 250.349c-16.906 0-33.284-3.308-48.735-9.843-14.896-6.297-28.284-15.32-39.794-26.829-11.483-11.482-20.531-24.87-26.828-39.793C3.307 158.46 0 142.054 0 125.148c0-16.907 3.307-33.285 9.843-48.736C16.14 61.516 25.162 48.128 36.67 36.618 48.154 25.135 61.542 16.087 76.465 9.79 91.916 3.307 108.294 0 125.2 0c16.907 0 33.284 3.307 48.736 9.842 14.896 6.298 28.284 15.32 39.793 26.83 11.483 11.482 20.532 24.87 26.83 39.793 6.534 15.425 9.842 31.829 9.842 48.736 0 16.907-3.308 33.284-9.843 48.736-6.297 14.896-15.32 28.284-26.829 39.793-11.483 11.483-24.87 20.532-39.793 26.83-15.452 6.481-31.856 9.789-48.736 9.789m0-243.285c-15.955 0-31.406 3.122-45.985 9.287-14.076 5.953-26.696 14.473-37.544 25.32-10.848 10.849-19.368 23.47-25.32 37.545-6.166 14.552-9.288 30.03-9.288 45.985 0 15.954 3.122 31.406 9.287 45.984 5.953 14.076 14.473 26.697 25.32 37.545 10.849 10.848 23.47 19.367 37.545 25.32 14.552 6.165 30.03 9.287 45.985 9.287 15.954 0 31.406-3.122 45.984-9.287 14.076-5.953 26.697-14.472 37.545-25.32 10.848-10.848 19.367-23.469 25.32-37.545 6.165-14.552 9.287-30.03 9.287-45.984 0-15.955-3.122-31.406-9.287-45.985-5.953-14.076-14.472-26.696-25.32-37.544-10.848-10.848-23.469-19.368-37.545-25.32-14.578-6.166-30.03-9.288-45.984-9.288"/></g></svg>