<svg version="1.1" id="Layer_1" xmlns="http://www.w3.org/2000/svg" x="0" y="0" viewBox="0 0 510 360" xml:space="preserve"><style>.st3{fill:#ccc}.st4{fill:#e5e5e5}.st6{fill:#b5b5b5}.st7{fill:#bfbfbf}.st10{fill:#f7b295}.st12{fill:#f29f8a}.st13{fill:#fff}.st16{fill:#333}.st17{opacity:.25;fill:#231f20}.st18{fill:#39ba8b}.st20,.st27{fill:#231f20}.st27{opacity:.1}.st28,.st29{opacity:.15;fill:#fff}.st29{opacity:.25}</style><path d="M471.25 350.32c17.36-32.79 27.2-70.17 27.2-109.86 0-129.82-105.18-235.05-234.92-235.05S28.61 110.65 28.61 240.47c0 39.69 9.84 77.07 27.2 109.86h415.44z" fill="#011b26"/><path d="M413.64 350.32c22.55-30.79 35.87-68.76 35.87-109.86 0-102.77-83.27-186.08-185.98-186.08S77.55 137.69 77.55 240.47c0 41.09 13.32 79.07 35.87 109.86h300.22z" fill="#012335"/><path d="M181.51 350.32h164.03c33.4-25.01 55.02-64.9 55.02-109.86 0-75.73-61.35-137.11-137.04-137.11s-137.04 61.39-137.04 137.11c.01 44.96 21.63 84.86 55.03 109.86z" fill="#002944"/><path class="st3" d="M123.57 345.76l32.77-38.21c.37-.43.87-.74 1.42-.88l19.14-4.86c.55-.14 1.12-.11 1.65.09l6 2.25c1.42.53 3.01-.18 3.55-1.6l13.49-35.36c.13-.34.33-.66.58-.92l29.88-31.31c.53-.55 1.26-.86 2.03-.86l56.2.64c1.08.01 2.06.65 2.49 1.64l36.38 81.99c.16.35.24.74.24 1.12v4.6c0 1.63 1.4 2.91 3.02 2.75l42.32-3.97c.99-.09 1.95.35 2.52 1.16l7.8 11.08c.24.34.56.63.93.83l16.73 9.18c.58.32 1.03.83 1.26 1.45.68 1.81-.66 3.74-2.59 3.74H125.67c-2.36.01-3.64-2.76-2.1-4.55z"/><path class="st4" d="M234.59 236.66l14.69 22.17c.21.32.54.56.91.67l22.04 6.27c.71.2 1.47-.1 1.85-.74l16.54-27.83c.64-1.08-.13-2.45-1.38-2.47l-53.26-.61a1.639 1.639 0 00-1.39 2.54z"/><path class="st6" d="M143.26 348.62l16.88-7.85c.19-.09.41-.11.61-.05l29.01 7.85c1 .27.81 1.75-.23 1.75h-45.89c-.96 0-1.25-1.29-.38-1.7z"/><path class="st7" d="M157.36 311.19l2.93 28.12c.08.79-.35 1.55-1.07 1.89l-19.25 8.95c-.25.11-.51.17-.79.17H123.7c-1.59 0-2.45-1.87-1.42-3.08l31.79-37.07c1.09-1.24 3.12-.61 3.29 1.02z"/><path class="st3" d="M178.96 304.82l14.57 38.41c1.12 2.95-1.58 5.93-4.62 5.11l-25.92-7.01a3.882 3.882 0 01-2.84-3.33l-2.9-27.79a3.861 3.861 0 012.9-4.15l14.24-3.61c1.91-.49 3.88.54 4.57 2.37z"/><path class="st4" d="M187.18 305.15l23.09 11.84c.51.26.72.87.48 1.39L197.27 348c-.39.86-1.63.82-1.97-.06l-16.74-44.13c-.33-.86.51-1.7 1.37-1.38l7.12 2.67c.06.01.1.03.13.05z"/><path class="st7" d="M211.18 317.45l-14.96 32.87h17.31z"/><path class="st6" d="M205.32 267.91l26.3 9.27c.58.2.95.77.9 1.38l-3.94 56.02c-.06.88.18 1.75.68 2.47l1.17 1.67c1.2 1.71.8 4.07-.89 5.3l-7.68 5.57c-.65.47-1.44.73-2.25.73h-2.52c-2.01 0-3.68-1.55-3.82-3.56l-1.94-27.16a3.84 3.84 0 00-2.07-3.14l-19.08-9.78a3.83 3.83 0 01-1.83-4.78l12.11-31.75c.74-1.93 2.9-2.93 4.86-2.24z"/><path class="st3" d="M232.94 277.17l14.09-15.07a4.78 4.78 0 00.49-5.91L236.2 239.1c-1.7-2.56-5.33-2.88-7.45-.66l-21.84 22.89c-2.4 2.51-1.41 6.67 1.87 7.82l23.35 8.23c.28.08.6.01.81-.21z"/><path d="M233.2 278.17l19.85 21.26c.24.26.38.6.38.96v14.01c0 .59.37 1.12.93 1.32l16.72 6.03c.16.06.29.18.35.34l1.79 4.59c.36.92-.32 1.92-1.31 1.92h-5.94c-.33 0-.65.12-.91.33l-11.33 9.56c-.29.24-.66.36-1.04.32l-14.23-1.36c-.37-.04-.74.08-1.03.32l-3.66 3.05c-.63.53-1.58.4-2.05-.27l-2.95-4.21c-.18-.26-.27-.58-.25-.9l4.01-57.04a.39.39 0 01.67-.23z" fill="#a1a1a1"/><path class="st7" d="M252.29 260.1l17.67 5.06a4.56 4.56 0 013.3 4.56l-1.91 50.93c-.02.59-.61.99-1.17.79l-15.8-5.7c-.58-.21-.97-.76-.97-1.39v-12.72c0-1.16-.44-2.27-1.23-3.12l-18.41-19.72c-.67-.72-.67-1.83 0-2.55l13.92-14.89a4.637 4.637 0 014.6-1.25z"/><path class="st3" d="M275.4 264.75l15.47-10.77c2.4-1.67 5.72-.82 7.03 1.8l30.97 62.16c.33.67.5 1.4.5 2.15v2.76c0 2.65-2.15 4.79-4.8 4.79h-.74c-.67 0-1.34.14-1.95.41l-8.52 3.79c-.76.34-1.59.47-2.42.39l-34.09-3.37a4.808 4.808 0 01-4-3.03l-1.2-3.08c-.24-.61-.35-1.27-.32-1.93l2.02-52.32c.05-1.5.81-2.89 2.05-3.75z"/><path class="st4" d="M220.86 350.32l17.02-12.91 8.21 12.91z"/><path d="M246.09 350.32h19.02l.34-21.72-12.17 10.28-15.4-1.47z" fill="none"/><path class="st4" d="M272.3 346.56l14.82-7.77c4.25-2.22 3-8.61-1.77-9.08l-11.15-1.09c-.16-.02-.31-.02-.47-.02h-3.53c-2.63 0-4.78 2.11-4.82 4.75l-.14 8.85c-.06 3.66 3.82 6.05 7.06 4.36z"/><path class="st7" d="M311.84 332.66l-3.28 2.63a4.067 4.067 0 00-1.03 5.11l4.25 7.82c.71 1.3 2.07 2.12 3.56 2.12h17.35c1.21 0 2.35-.54 3.12-1.47l3.12-3.78a4.059 4.059 0 00-.68-5.82l-13.5-10.21a4.048 4.048 0 00-4.09-.47l-7.94 3.54c-.32.13-.61.31-.88.53z"/><path class="st4" d="M342.72 341.6l23.26-4.57a2.46 2.46 0 001.58-1.06l5.92-8.93c1.15-1.73-.22-4.02-2.29-3.83l-41.79 3.92c-2.28.16-3.13 3.06-1.31 4.44l12.66 9.57c.56.43 1.28.59 1.97.46z"/><path class="st6" d="M385.44 335.65l-3.59 14.67h23.53l-1.76-4.69z"/><path d="M233.69 236.39s1.65 9.29 9.28 10.93c7.63 1.64 34.96 5.68 41.34-2.48s3.87-9.71 3.87-9.71l.29-8.57-47.05-1.51-7.73 11.34z" opacity=".1" fill="#011b26"/><path class="st10" d="M288.26 66.73s5.11 2.89 4.12 9.21c-1 6.32-.67 7.98-5.99 6.65s1.87-15.86 1.87-15.86zm-51 0s-5.11 2.89-4.12 9.21c1 6.32.67 7.98 5.99 6.65s-1.87-15.86-1.87-15.86z"/><path class="st10" d="M239.68 80.19s-1.45 16.23 3.08 19.57 8.35 3.1 8.35 3.1h21.47s6.44 0 9.18-2.63c2.74-2.63 4.94-6.65 4.62-17.65-.32-10.99-46.7-2.39-46.7-2.39z"/><path d="M237.51 40.67s-4.66 6.32-2 18.63 2.19 26.62 10.4 28.94c8.22 2.33 31.82 0 31.82 0s8.31-1.66 8.65-5.66c.33-3.99 3.99-32.27 3.99-34.6v-2.33s3.33-2.33 4.66-9.98 2.33-12.31 0-12.64-15.39 2.99-29.47 3.66c-14.09.67-30.05 1-28.05 13.98z" fill="#65415a"/><path class="st12" d="M251.23 114.56v-14.8s-.95-6.44 10.85-6.44c0 0 10.38 0 10.38 5.49v15.75h-21.23z"/><path class="st10" d="M301.7 184.41l-12.5 22.64-2.07-22.64z"/><path class="st12" d="M288.46 199.63l7.14-4.28-6.46 11.7z"/><path class="st10" d="M222.48 184.41l12.5 22.64 2.07-22.64z"/><path class="st12" d="M235.66 199.63l-7.14-4.28 6.46 11.7z"/><path class="st13" d="M261.84 114.56s-18.6-4.54-25.99 12.77c-7.24 16.94-13.34 30.11-16.27 54.95-.11.91.51 1.76 1.41 1.94l12.81 2.5c.84.16 1.68-.3 1.99-1.11l1.28-3.38 24.77-67.67zm0 0s18.6-4.54 25.99 12.77c7.24 16.94 13.34 30.11 16.27 54.95.11.91-.51 1.76-1.41 1.94l-12.81 2.5c-.84.16-1.68-.3-1.99-1.11l-1.28-3.38-24.77-67.67z"/><path d="M287.13 237.42c0 2.04-1.28 3.85-3.19 4.54-3.89 1.4-11.38 3.37-22.69 3.37-10.42 0-17.6-1.67-21.71-3.03-2.5-.83-4.18-3.19-4.18-5.83v-17.36h51.77v18.31z" fill="#4959a2"/><path d="M290.12 218.84c.07.86-.5 1.65-1.34 1.85-3.42.83-12.74 2.72-27.11 2.72-14.49 0-23.85-2.29-27.19-3.26-.8-.24-1.32-1.01-1.25-1.84l7.87-90.13s-1.45-13.61 20.75-13.61 21.23 13.61 21.23 13.61l7.04 90.66z" fill="#ecf6f8"/><path class="st16" d="M232.57 186.72s-5.38 7.29-12.13 9.85c0 0-10.37 19.72 5.83 28.48l6.29-6.89v-31.44z"/><path class="st17" d="M226.4 209.03c-6.15 7.58-8.57-4.82-8.59-4.88-1.41 6.52-1.23 15.67 8.46 20.9l6.29-6.89v-16.22c-2.65 2.96-4.86 5.48-6.16 7.09z"/><path class="st16" d="M232.57 186.72S210.48 240 245.28 240v-52.44l-12.71-.84zm60.03 0s5.38 7.29 12.12 9.85c0 0 10.37 19.72-5.83 28.48l-6.29-6.89v-31.44z"/><path class="st17" d="M297.38 201.94s-1.94-.07-4.78-.18v16.41l6.29 6.89c6.54-3.54 8.75-8.86 9.06-13.96-6.58 4.73-10.57-9.16-10.57-9.16z"/><path class="st16" d="M292.6 186.72S314.69 240 279.89 240v-52.44l12.71-.84z"/><path class="st18" d="M234.11 188.1s-2.02 6.77-2.35 14.72c-.33 7.95 6.53-7.88 6.53-7.88s-.55-3.48.45-4.56c1-1.08-4.63-2.28-4.63-2.28zm55.95 0s2.02 6.77 2.35 14.72c.33 7.95-6.53-7.88-6.53-7.88s.55-3.48-.45-4.56c-1.01-1.08 4.63-2.28 4.63-2.28zm-67.05-37.36s-2.57 9.96 6.01 13.98c0 0 2.4.3 3.54 0 1.14-.3 1.3-13.11 1.3-13.11l-10.85-.87z"/><path class="st17" d="M223.01 150.74s-.38 1.47-.36 3.5c1.27-.2 9.67-1.25 8.64 6.18-.21 1.54-.42 3.03-.61 4.43.67.02 1.39 0 1.89-.13 1.14-.3 1.3-13.11 1.3-13.11l-10.86-.87z"/><path class="st16" d="M236.27 130.06s-12.65 2.28-15.3 15.56c0 0-.84 5.05 3.6 5.59s9.28.41 9.28.41l6.39-11.22-3.97-10.34z"/><path class="st17" d="M233.86 137.86c1.54 7.68-12.89 9.59-12.89 9.59.19 1.5.96 3.42 3.61 3.75 4.44.54 9.28.41 9.28.41l6.39-11.22-1.8-4.67c-3.08-.13-4.93.45-4.59 2.14z"/><path class="st18" d="M301.51 150.74s2.57 9.96-6.01 13.98c0 0-2.4.3-3.54 0-1.14-.3-1.3-13.11-1.3-13.11l10.85-.87z"/><path d="M292.03 154.86s8.59-1.85 9.37 2.93c.99-3.64.11-7.06.11-7.06l-10.85.87s.02 1.54.09 3.57l1.28-.31z" opacity=".15" fill="#231f20"/><path class="st16" d="M288.25 130.06s12.65 2.28 15.3 15.56c0 0 .84 5.05-3.6 5.59s-9.28.41-9.28.41l-6.39-11.22 3.97-10.34z"/><path class="st17" d="M290.53 141.06l-5.05 1.46 5.18 9.09s4.84.13 9.28-.41c4.44-.54 3.6-5.59 3.6-5.59-2.55 2.67-13.01-4.55-13.01-4.55z"/><path class="st16" d="M294.8 175.09c-.18-1.68-4.2-29.02-4.27-34.03-.07-5.01-1.98-7.31-1.98-7.31h-53.04s-1.91 2.3-1.98 7.31c-.07 5.01-4.09 32.35-4.27 34.03-.18 1.68-2.76 8.41 7.27 14.72 10.03 6.31 25.5-.72 25.5-.72s15.48 7.03 25.5.72 7.45-13.03 7.27-14.72z"/><path class="st17" d="M294.8 175.09c-.18-1.68-4.2-29.02-4.27-34.03-.07-5.01-1.98-7.31-1.98-7.31h-43.84l4.98 3.38s29.66 2.69 31.16 17.11 7.2 30.03-10.46 33.61c-2.55.52-4.85 1.14-6.93 1.82 4.05 1.54 15.88 5.3 24.08.14 10.03-6.3 7.44-13.03 7.26-14.72z"/><path class="st18" d="M240.39 153.43s1.37 13.01-3.26 28.76l3.72 1.14s4.17-13.1 4.09-29.26l-4.55-.64z"/><path class="st20" d="M240.01 151.71s-.51 1.03-.23 1.64 2.17 1.02 3.42.9 4.11-.03 3.31-2.54-6.5 0-6.5 0z"/><path class="st20" d="M240.25 146.85s-1.14.66-1.14 2.28c0 1.62.18 2.88 2.16 2.76 1.98-.12 5.19.36 5.72-.54.53-.9.37-4.18-.45-4.94-.82-.76-6.29.44-6.29.44z"/><path class="st20" d="M240.01 144.54s-1.32 2.97 2.4 2.91 5.22-1.08 4.32-3.3-6.72.39-6.72.39z"/><path class="st18" d="M238.03 138.25s.48 6.26 2.58 6.56c2.1.3 5.58.3 6.13-.66.54-.96 2.96-7.02 2.96-7.02l-11.67 1.12zm45.64 15.18s-1.37 13.01 3.26 28.76l-3.72 1.14s-4.17-13.1-4.09-29.26l4.55-.64z"/><path class="st20" d="M284.04 151.71s.51 1.03.23 1.64c-.29.6-2.17 1.02-3.42.9s-4.11-.03-3.31-2.54c.8-2.51 6.5 0 6.5 0z"/><path class="st20" d="M283.8 146.85s1.14.66 1.14 2.28c0 1.62-.18 2.88-2.16 2.76-1.98-.12-5.19.36-5.72-.54-.53-.9-.37-4.18.45-4.94.83-.76 6.29.44 6.29.44z"/><path class="st20" d="M284.04 144.54s1.32 2.97-2.4 2.91-5.22-1.08-4.32-3.3 6.72.39 6.72.39z"/><path class="st18" d="M286.03 138.25s-.48 6.26-2.58 6.56-5.58.3-6.13-.66c-.54-.96-2.96-7.02-2.96-7.02l11.67 1.12z"/><path class="st17" d="M248.38 140.38c.69-1.67 1.32-3.25 1.32-3.25l-11.67 1.12s.24 3.02 1.08 4.97c.01-.01 4.23-4.18 9.27-2.84zm37.27.46c.28-1.38.38-2.59.38-2.59l-11.67-1.12s1.33 3.34 2.24 5.45c.7-.55 4.03-2.87 9.05-1.74z"/><path class="st18" d="M289.81 118.42l-27.78-1.37-27.78 1.37s-2.23 10.41 3.23 19.48c0 0 1.02 1.02 3.24.6s10.11-1.86 21.3-1.86 19.08 1.44 21.3 1.86c2.22.42 3.24-.6 3.24-.6 5.48-9.07 3.25-19.48 3.25-19.48z"/><path class="st17" d="M241.71 131.66c3.7 3.94 40.76-1.86 40.76-1.86s7.57-1.14 6.09 3.94c2.85-7.81 1.25-15.31 1.25-15.31l-27.78-1.37-27.78 1.37s-1.28 5.96.47 12.79c.37-.36 3.52-3.27 6.99.44z"/><path class="st18" d="M294.32 209.76c-.12-6.79-6.31-14.3-14.23-18.87-4.45-2.56-9.6-3.21-13.25-3.29-2.86-.06-6.66-.05-9.41 0-3.67.06-8.92.68-13.46 3.3-7.93 4.57-14.11 12.08-14.23 18.87-.12 6.79-3.04 26.38 15.21 30.22 0 0 9.32.48 17.09.48 7.76 0 17.09-.48 17.09-.48 18.23-3.85 15.31-23.44 15.19-30.23z"/><path class="st17" d="M294.32 211.01c-.12-5.34-6.31-11.25-14.23-14.85-4.45-2.02-9.6-2.53-13.25-2.59-2.86-.05-6.66-.04-9.41 0-3.67.05-8.92.54-13.46 2.59-7.93 3.59-14.11 9.51-14.23 14.85s-3.04 20.76 15.21 23.79c0 0 9.32.38 17.09.38 7.76 0 17.09-.38 17.09-.38 18.23-3.03 15.31-18.44 15.19-23.79z"/><path class="st16" d="M262.03 231.37c-7.7 0-17.04-.48-17.13-.48h-.07l-.07-.01c-16.94-3.57-16.41-12.37-16.01-18.79.05-.81.1-1.59.11-2.34.12-6.75 6.02-14.63 14.67-19.61 4.71-2.71 10.15-3.35 13.88-3.41 1.44-.02 3.17-.04 4.9-.04 1.58 0 3.17.01 4.54.04 3.67.08 9.03.73 13.67 3.41 8.66 4.99 14.55 12.87 14.67 19.61.01.75.06 1.53.11 2.34.39 6.42.93 15.22-16.01 18.79l-.07.01h-.07c-.08.01-9.42.48-17.12.48z"/><path class="st17" d="M294.32 209.76c-.1-5.6-4.34-11.7-10.27-16.22.07.16 5.1 11.65 3.08 15.56-2.03 3.94-.66 13.08-18.51 14.3-17.86 1.22-28.75 3.56-39-5.86.55 5.02 3.46 9.96 15.33 12.46 0 0 9.32.48 17.09.48 7.76 0 17.09-.48 17.09-.48 18.23-3.83 15.31-13.45 15.19-20.24z"/><path class="st18" d="M268.95 222.01h-14.57c-4.15 0-7.51-3.36-7.51-7.51v-10.78c0-4.15 3.36-7.51 7.51-7.51h14.57c4.15 0 7.51 3.36 7.51 7.51v10.78c0 4.14-3.36 7.51-7.51 7.51z"/><path class="st17" d="M268.95 215.62h-14.57c-4.15 0-7.51-3.36-7.51-7.51v-.87c0-4.15 3.36-7.51 7.51-7.51h14.57c4.15 0 7.51 3.36 7.51 7.51v.87c0 4.15-3.36 7.51-7.51 7.51z"/><path class="st18" d="M268.95 212.1h-14.57c-4.15 0-7.51-3.36-7.51-7.51v-.87c0-4.15 3.36-7.51 7.51-7.51h14.57c4.15 0 7.51 3.36 7.51 7.51v.87c0 4.14-3.36 7.51-7.51 7.51zm19.35-104.75c-6.72-10.75-15.52-10.75-15.52-10.75H251.3s-8.81 0-15.52 10.75 3.28 19.26 9.25 19.71c5.97.45 17.01.45 17.01.45s11.04 0 17.01-.45c5.96-.45 15.96-8.96 9.25-19.71z"/><g id="Page-1_6_"><g id="Artboard-Copy-4_6_" transform="translate(-152 -46)"><g id="Group-2-Copy_6_" transform="translate(147 41)"><g id="Group_6_" fill-rule="evenodd" clip-rule="evenodd"><path id="Rectangle_11_" d="M261.34 158.92h12.21a5.75 5.75 0 015.75 5.75v12.22a5.75 5.75 0 01-5.75 5.75h-12.21a5.75 5.75 0 01-5.75-5.75v-12.22c.01-3.18 2.58-5.75 5.75-5.75z" fill="#39ba8b" fill-opacity=".5"/><path d="M258.12 161.94l10.8-3.93c2.98-1.09 6.28.45 7.36 3.44l3.93 10.8c1.09 2.98-.45 6.28-3.43 7.37l-10.8 3.93a5.732 5.732 0 01-7.36-3.44l-3.93-10.8a5.746 5.746 0 013.43-7.37z" fill="#39ba8b"/><path id="Fill-13_6_" d="M267.43 169.78c.34-.33.7-.62 1.07-.88.37-.26.75-.48 1.13-.64.39-.16.9-.33 1.68-.11.97.28.86 1.39.8 1.54-.36.97-.68 1.78-.98 2.44-.3.66-.56 1.25-.79 1.77-.23.52-.41 1.02-.56 1.49-.14.48-.24 1.01-.28 1.61 0 .04.01.09.02.15s.05.11.1.15c.05.04.12.06.22.06s.23-.04.39-.11c.41-.2.91-.55 1.49-1.04.29-.25.45-.13.49.11.04.24-.05.59-.25.8-.41.43-.84.79-1.29 1.1-.46.31-.9.46-1.33.46-.24 0-.48-.04-.72-.13a1.66 1.66 0 01-.61-.38 1.81 1.81 0 01-.41-.66c-.1-.27-.14-.59-.13-.96.01-.37.06-.74.15-1.1.09-.36.2-.75.33-1.15.14-.4.3-.85.5-1.32.2-.48.42-1 .66-1.59.16-.37.28-.71.36-1.01.09-.31.1-.53.04-.67-.06-.14-.21-.17-.45-.07-.24.09-.61.35-1.11.78-.54.5-1.03.97-1.46 1.41l-.01.01a8.87 8.87 0 00-2.05 3.44c-.06.19-.12.38-.17.57-.25.86-.41 1.76-.48 2.7 0 .1-.08.13-.24.09-.16-.04-.33-.12-.52-.22-.19-.11-.37-.23-.52-.37-.16-.14-.24-.27-.26-.38.04-.87.19-1.74.44-2.62.25-.88.56-1.77.94-2.66.38-.89.79-1.79 1.23-2.67.29-.58.57-1.16.86-1.73l-3.9 1.51-.04-.09c-.23-.6.06-1.28.67-1.51l4.08-1.58c.12-.25.23-.5.35-.75.23-.5.45-1 .65-1.48.21-.48.39-.94.55-1.38.16-.44.29-.85.39-1.21.14-.07.79.26 1.01.44.21.18.39.39.51.63.13.24.15.48.06.7-.06.17-.17.43-.33.78-.16.35-.35.74-.57 1.18-.02.04-.04.07-.05.11l3.26-1.26.04.09c.23.6-.06 1.28-.67 1.51l-3.5 1.35-.52 1.01-1.24 2.79c.31-.39.63-.73.97-1.05" fill="#fefefe"/></g></g></g></g><path class="st16" d="M281.88 124.17l-19.74 1.5-19.74-1.5s-.99 6.94-.72 12.46c.05 1.03 1 1.79 2.02 1.63 3.73-.58 10.14-1.35 18.32-1.35 8.35 0 14.86.8 18.55 1.38 1.02.16 1.97-.59 2.02-1.63.29-5.52-.71-12.49-.71-12.49z"/><path d="M282.63 132.83c-.13-4.46-.74-8.66-.74-8.66l-19.74 1.5-19.74-1.5s-.51 3.49-.7 7.49c.03-.01 21.63-5.23 40.92 1.17z" opacity=".5" fill="#231f20"/><path class="st16" d="M283.63 113.87c-2.58-14.6-10.86-17.27-10.86-17.27h-21.48s-8.28 2.67-10.86 17.27 7.63 13.37 7.63 13.37l13.97.27 13.97-.27c.01 0 10.22 1.23 7.63-13.37z"/><path class="st13" d="M505.29 352.97s-52.39-8.12-53.9-10.91c-1.51-2.79-7.21-11.47-14.63-11.56-7.42-.09-8.86 3.56-12.7-.69s-11.28-6.31-18.82-2.93c0 0 1.19-12.38-10.54-14.57-11.73-2.18-13.63 4.43-13.63 4.43s-3.86-21.57-20.51-21.72c-16.65-.15-22.47 10.79-22.47 10.79s-10.02-12.43-28.43-6.96c-18.4 5.47-13.93 22.82-13.93 22.82s-8.29-4.28-14.02-1.08c-5.62 3.13-7.24 9.87-3.97 15.54-5.79-.84-12.59-2.4-15.47-5.2-5.46-5.33-14.18-3.77-16.75-5.43-2.57-1.67-3.18-4.91-7.94-4.74-4.76.17-9.25-6.2-15.97-4.71-6.72 1.49-12.89 4.22-14.27 7.78 0 0-5.7-12.35-15.68-10.74-9.98 1.61-9.56 6.36-12.96 2.21-3.41-4.15-15.33-15.02-30.55-12.72s-18.16 11.43-19.89 12c-1.74.56-3.06-1.4-4.99.68-1.93 2.08-7.02 0-9.29 6.85 0 0-10.26-6.41-18.89-2.34-8.64 4.07-13.2 9.75-14.98 16.09 0 0-2.63-3.42-4.77-.08-2.14 3.34-21.41 9.36-22.13 10.14s-38.89 8.92-47.9 9.49l499.98-2.44z"/><path d="M191.65 313.11c5.19-.84 9.21 2.1 11.89 5.11 0 0-14.57-2.15-16.55 2.7-2.14 5.25-10.81.45-11.69-9.06 1.5 1.34 2.64 2.56 3.38 3.46 3.41 4.15 2.99-.61 12.97-2.21zm-68.4 2.16c1.93-2.08 3.26-.11 4.99-.68 1.74-.56 4.67-9.7 19.89-12 6.81-1.03 12.96.59 17.98 3.05 0 0-19.4 1.91-25.96 13.73-5.8 10.44-10.71 12.92-18.18 9.91-7.46-3.01-8.71-5.48-8.02-7.16 2.27-6.85 7.36-4.77 9.3-6.85zM93.19 331.8c-1 8.25 10.94 13.98 5.08 14.39-.6.04-45.08 2.17-45.08 2.17 9.01-.57 17.9-4.4 18.63-5.18.73-.78 1.36-4.06 3.5-7.4 2.14-3.34 4.77.08 4.77.08 1.78-6.34 6.35-12.02 14.98-16.09 4.64-2.19 9.76-1.34 13.49-.1-.01.01-14.32 3.41-15.37 12.13zm254.83-34.35c.65-.27 9.6-3.65 15.31 10.75 5.93 14.95 6.51 23.02 10.12 21.83 3.61-1.19 8.32-10.41 7.61-13.28 0 0-3.86-21.57-20.51-21.72-5.17-.05-9.3.98-12.53 2.42zm103.37 44.62c-1.51-2.79-7.21-11.47-14.63-11.56-7.42-.09-8.86 3.56-12.7-.69s-11.28-6.31-18.82-2.93c0 0 1.19-12.38-10.54-14.57-1.27-.24-2.43-.37-3.48-.41 0 0 6.97 3.35 5.27 13.59-1.7 10.24.1 9.73 8.66 7.99 8.55-1.74 6.49 6.2 12.26 6.14 5.77-.06 12.86.58 14.08 6.23l29.51.07c-.01-.01-8.1-1.08-9.61-3.86z" opacity=".5" fill="#e4edec"/><ellipse cx="373.9" cy="157.8" rx="17.32" ry="17.33" fill="#f1f1f1"/><path class="st27" d="M387.75 147.43s3.51 12.35-7.48 19.48c-8.15 5.29-21.69-1.03-21.69-1.03 2.9 5.5 8.67 9.25 15.31 9.25 9.56 0 17.32-7.76 17.32-17.33.01-3.9-1.29-7.48-3.46-10.37z"/><ellipse transform="rotate(-30.026 374.052 147.79)" class="st27" cx="374.04" cy="147.79" rx="2.1" ry="1.17"/><ellipse transform="rotate(-30.026 368.481 161.134)" class="st27" cx="368.47" cy="161.14" rx="2.1" ry="1.17"/><ellipse transform="rotate(-30.026 363.924 155.267)" class="st27" cx="363.91" cy="155.27" rx="3.57" ry="2"/><ellipse transform="rotate(-30.026 379.332 157.794)" class="st27" cx="379.32" cy="157.8" rx="3.57" ry="2"/><ellipse transform="rotate(-30.026 362.527 148.261)" class="st27" cx="362.52" cy="148.26" rx=".81" ry=".46"/><ellipse transform="rotate(-30.026 379.332 150.319)" class="st27" cx="379.32" cy="150.32" rx=".81" ry=".46"/><circle class="st18" cx="149.26" cy="117.05" r="1.96"/><circle class="st13" cx="139.95" cy="86.79" r="1.96"/><circle class="st28" cx="191.91" cy="42.33" r="1.47"/><circle class="st13" cx="241.71" cy="14.27" r=".98"/><circle class="st28" cx="194.68" cy="83.02" r="2.49"/><circle class="st13" cx="157.24" cy="99.09" r=".98"/><circle class="st13" cx="128.98" cy="149.04" r="1.47"/><circle class="st18" cx="194.4" cy="141.06" r=".98"/><circle class="st29" cx="98.9" cy="223.4" r="2.49"/><circle class="st13" cx="55.67" cy="225.9" r="1.47"/><circle class="st29" cx="50.69" cy="254.68" r="2.49"/><circle class="st18" cx="70.08" cy="286.09" r="2.49"/><circle class="st13" cx="93.15" cy="265.2" r="2.49"/><circle class="st13" cx="122.9" cy="254.68" r="1.47"/><circle class="st28" cx="152.26" cy="274.92" r="2.49"/><circle class="st13" cx="154.75" cy="191.05" r="1.47"/><circle class="st13" cx="207.37" cy="104.08" r="1.47"/><circle class="st13" cx="157.24" cy="50.15" r=".98"/><circle class="st28" cx="101.39" cy="70.77" r="2.49"/><circle class="st13" cx="322.1" cy="47.66" r="1.96"/><circle class="st18" cx="101.39" cy="114.56" r="1.47"/><circle class="st29" cx="75.06" cy="150.93" r="2.49"/><circle class="st13" cx="106" cy="173.68" r="1.96"/><circle class="st18" cx="88.17" cy="193.54" r="1.96"/><circle class="st13" cx="161.54" cy="160.23" r="1.47"/><circle class="st13" cx="166.15" cy="219.35" r="1.96"/><circle class="st28" cx="180.28" cy="252.19" r="1.47"/><circle class="st29" cx="189.42" cy="216.86" r="2.49"/><circle class="st13" cx="193.79" cy="176.17" r=".98"/><circle class="st13" cx="338.68" cy="203.39" r=".49"/><circle class="st13" cx="320.02" cy="237.97" r=".98"/><circle class="st28" cx="343.66" cy="262.41" r="2.49"/><circle class="st13" cx="369.19" cy="245.33" r=".98"/><circle class="st13" cx="385.49" cy="205.05" r="1.96"/><circle class="st13" cx="401.67" cy="241.71" r="1.96"/><circle class="st28" cx="396.11" cy="269.93" r="2.49"/><circle class="st13" cx="418.73" cy="290.71" r="1.96"/><circle class="st18" cx="433.69" cy="280.02" r=".98"/><circle class="st13" cx="436.18" cy="235.18" r=".98"/><circle class="st18" cx="460.99" cy="225.05" r="1.96"/><circle class="st28" cx="465.97" cy="192.86" r="2.49"/><circle class="st13" cx="438.68" cy="176.17" r="1.47"/><circle class="st18" cx="411.39" cy="176.17" r="1.47"/><circle class="st13" cx="421.22" cy="145.35" r=".98"/><circle class="st13" cx="428.59" cy="111.53" r=".98"/><circle class="st29" cx="386.69" cy="77.36" r="2.49"/><circle class="st28" cx="350.66" cy="83.02" r="2.49"/><circle class="st13" cx="331.86" cy="111.53" r="1.47"/><circle class="st29" cx="329.37" cy="137.13" r="2.49"/><circle class="st13" cx="148.32" cy="239.21" r=".49"/></svg>