<svg width="325" height="74" xmlns="http://www.w3.org/2000/svg"><g fill="none" fill-rule="evenodd"><g transform="translate(-5 -5)"><rect fill-opacity=".5" fill="#39BA8B" x="9" y="9" width="66" height="66" rx="16"/><rect fill="#39BA8B" transform="rotate(-20 42 42)" x="10" y="10" width="64" height="64" rx="16"/><path d="M41.96 39.213a26.618 26.618 0 012.98-2.46 16.838 16.838 0 013.158-1.78c1.072-.454 2.503-.919 4.678-.296 2.703.774 2.392 3.864 2.234 4.3-.994 2.688-1.907 4.95-2.741 6.789a472.06 472.06 0 00-2.205 4.922 35.824 35.824 0 00-1.55 4.15c-.397 1.326-.655 2.817-.774 4.477 0 .119.02.258.06.416a.786.786 0 00.268.414c.139.12.347.179.625.179s.635-.099 1.073-.297c1.152-.553 2.533-1.521 4.141-2.906.805-.691 1.252-.35 1.356.312.104.662-.134 1.645-.7 2.238a21.545 21.545 0 01-3.605 3.054c-1.272.85-2.503 1.275-3.695 1.275-.676 0-1.34-.118-1.996-.356a4.588 4.588 0 01-1.698-1.067c-.477-.474-.855-1.087-1.132-1.838-.279-.75-.397-1.64-.358-2.669.04-1.027.179-2.046.418-3.054.237-1.008.545-2.075.923-3.202a53.155 53.155 0 011.4-3.676 1954.14 1954.14 0 001.848-4.418 23.574 23.574 0 001.013-2.816c.238-.85.277-1.473.119-1.869-.16-.394-.577-.464-1.252-.207s-1.708.978-3.098 2.164a99.292 99.292 0 00-4.052 3.914l-.036.037c-2.62 2.7-4.546 5.99-5.706 9.562a54.26 54.26 0 00-.485 1.579 36.787 36.787 0 00-1.34 7.501c0 .277-.22.356-.656.237-.438-.118-.924-.326-1.46-.622a7.767 7.767 0 01-1.46-1.038c-.437-.395-.675-.75-.715-1.068.119-2.41.526-4.842 1.221-7.294a63.562 63.562 0 012.622-7.412 130.397 130.397 0 013.426-7.442 883.807 883.807 0 002.382-4.821L26.325 38.33l-.102-.263a3.24 3.24 0 011.857-4.2l11.37-4.4c.325-.692.645-1.387.961-2.084.635-1.403 1.24-2.777 1.817-4.121a67.476 67.476 0 001.52-3.854 45.77 45.77 0 001.072-3.38c.397-.198 2.214.72 2.81 1.215a5.805 5.805 0 011.43 1.75c.358.672.418 1.324.179 1.956-.16.475-.467 1.196-.923 2.165-.458.969-.984 2.065-1.58 3.29-.047.099-.098.2-.146.299l9.085-3.516.102.263a3.24 3.24 0 01-1.856 4.2l-9.738 3.768c-.498.961-.983 1.905-1.44 2.814l-3.464 7.769a44.056 44.056 0 012.681-2.788" fill="#FEFEFE"/></g><path d="M89.604 49c-.542 0-.904-.362-.904-.94V26.03c0-.543.362-.904.904-.904h6.114c.542 0 .904.253 1.266.795.47.652 3.87 6.765 6.005 12.19 2.025-5.425 5.426-11.538 5.896-12.19.362-.542.76-.795 1.302-.795h6.077c.543 0 .94.361.94.904v22.03c0 .578-.397.94-.94.94h-3.762c-.579 0-.94-.362-.94-.94V31.744c-2.207 3.039-4.884 8.863-6.077 13.565-.109.362-.47.651-.832.651h-3.98c-.361 0-.723-.289-.831-.65-1.375-5.427-4.052-10.419-6.078-13.276v16.024c0 .58-.361.941-.94.941h-3.22zm39.863 7.922c-2.387 0-4.051-.434-5.715-1.375-.47-.18-.579-.65-.362-1.121l1.013-2.387c.181-.543.724-.724 1.266-.47 1.302.578 2.134.759 3.039.759 3.038 0 4.377-1.953 3.979-4.883-.905 1.085-2.496 1.917-4.522 1.917-3.762 0-7.56-2.496-7.56-8.682v-7.813c0-.579.362-.94.904-.94h3.581c.543 0 .905.361.905.94v7.994c0 2.496 1.085 3.907 3.183 3.907 1.555 0 3.002-.76 3.581-2.424v-9.477c0-.579.362-.94.94-.94h3.437c.543 0 .904.361.904.94v14.578c0 7.09-3.4 9.477-8.573 9.477zm32.23-31.796c.543 0 .905.361.905.904v22.03c0 .578-.362.94-.904.94H157.9c-.543 0-.905-.362-.905-.94v-6.765h-9.947v6.764c0 .58-.362.941-.905.941h-3.798c-.543 0-.904-.362-.904-.94V26.03c0-.543.361-.904.904-.904h3.798c.543 0 .905.361.905.904v10.2h9.947v-10.2c0-.543.362-.904.905-.904h3.798zm14.615 24.236c-1.773 0-4.088-.724-5.354-2.677v1.374c0 .58-.362.941-.904.941h-3.147c-.543 0-.905-.362-.905-.94V24.582c0-.543.362-.904.905-.904h3.509c.542 0 .904.361.904.904v8.175c1.23-.65 3.038-1.194 4.883-1.194 3.798 0 7.669 2.858 7.669 8.501 0 5.245-3.039 9.297-7.56 9.297zm-.94-4.594c1.844 0 3.327-1.664 3.327-4.16 0-2.786-1.664-4.305-3.69-4.305-1.085 0-2.749.507-3.69 1.194-.723 4.16.76 7.27 4.052 7.27zm18.52 4.594c-3.762 0-7.633-3.039-7.633-8.682 0-5.788 4.233-9.116 9.586-9.116 2.75 0 5.245.977 6.62 1.773.94.543 1.302 1.194 1.302 2.387V48.06c0 .58-.361.941-.904.941h-3.002c-.543 0-.941-.362-.941-.94v-1.194c-.832 1.41-2.713 2.496-5.028 2.496zm1.266-4.594c2.93 0 4.232-3.111 3.581-7.56-.723-.47-1.772-.905-3.22-.905-2.025 0-3.942 1.7-3.942 4.45 0 2.495 1.736 4.015 3.581 4.015zM208.072 49c-.543 0-.904-.362-.904-.94V32.866c0-.579.361-.94.904-.94h2.785c.543 0 .905.361.905.94v.904c1.41-1.302 3.364-1.845 5.208-1.845.76 0 1.628.073 2.352.362.542.253.832.651.65 1.194l-1.012 2.966c-.217.651-.723.615-1.194.542-.578-.072-1.085-.18-1.808-.18-1.086 0-2.894.76-3.473 1.953v9.296c0 .58-.362.941-.94.941h-3.473zm23.549.47c-7.126 0-9.803-13.746-9.803-23.078 0-1.013.253-1.266.904-1.266h3.87c.47 0 .941.072.941.795 0 8.429 2.894 18.087 4.305 18.087.796 0 2.025-4.051 4.304-17.689.109-.47.47-.65.832-.65h4.088c.362 0 .723.18.796.65 2.062 13.638 3.979 17.87 4.81 17.87 2.243 0 3.944-9.84 3.944-18.268 0-.723.47-.795.94-.795h3.581c.615 0 .905.253.905 1.266 0 9.332-2.496 23.078-9.659 23.078-2.93 0-6.438-1.664-7.74-12.19-1.556 10.056-4.052 12.19-7.018 12.19zm33.207-.108c-3.762 0-7.633-3.039-7.633-8.682 0-5.788 4.232-9.116 9.586-9.116 2.75 0 5.245.977 6.62 1.773.94.543 1.302 1.194 1.302 2.387V48.06c0 .58-.362.941-.904.941h-3.003c-.542 0-.94-.362-.94-.94v-1.194c-.832 1.41-2.713 2.496-5.028 2.496zm1.266-4.594c2.93 0 4.232-3.111 3.58-7.56-.723-.47-1.772-.905-3.219-.905-2.025 0-3.942 1.7-3.942 4.45 0 2.495 1.736 4.015 3.58 4.015zM279.008 49c-.543 0-.905-.362-.905-.94V24.582c0-.543.362-.904.905-.904h3.508c.543 0 .905.361.905.904V48.06c0 .58-.362.941-.905.941h-3.508zm8.717 0c-.542 0-.904-.362-.904-.94V24.582c0-.543.362-.904.904-.904h3.51c.542 0 .904.361.904.904V48.06c0 .58-.362.941-.905.941h-3.509zm21.56-4.413l1.012 2.387c.109.254.109.724-.253.905-1.628.832-3.762 1.483-5.932 1.483-5.68 0-9.08-3.545-9.08-8.61 0-5.208 3.184-9.224 9.08-9.224 4.304 0 7.017 2.677 7.017 5.716 0 4.015-3.038 5.751-6.909 5.751-1.41 0-2.893-.398-4.16-1.013.58 1.664 2.243 2.967 4.522 2.967 1.447 0 2.243-.217 3.798-.832.434-.181.724 0 .905.47zm-4.992-8.646c-1.556 0-3.51.869-4.16 3.075 1.049.434 2.134.687 3.545.687 1.772 0 2.93-.795 2.93-1.88 0-.833-.724-1.882-2.315-1.882zm19.425-3.074c.542 0 .904.361.904.904v2.93c0 .543-.362.904-.904.904h-4.305l-.036 1.628c-.072 4.232 1.447 5.354 3.762 5.716.651.108.868.65.76 1.193l-.58 2.496c-.108.434-.433.724-.903.724-6.656 0-8.537-4.341-8.393-10.96l.181-8.79c0-.543.253-1.086.905-1.267l3.147-.94c.542-.145 1.302.108 1.302.832l-.073 4.63h4.233z" fill="#231F20" fill-rule="nonzero"/></g></svg>